<svg width="24" height="24" viewBox="0 0 24 24" fill="none" xmlns="http://www.w3.org/2000/svg">
<path fill-rule="evenodd" clip-rule="evenodd" d="M12 2.40002C12.6627 2.40002 13.2 2.93728 13.2 3.60002V5.18758L17.9453 7.08572L19.8633 6.12671C20.4561 5.83032 21.1769 6.07059 21.4733 6.66337C21.7697 7.25614 21.5294 7.97695 20.9367 8.27334L19.4569 9.01323L21.5427 15.5169C21.6873 15.9678 21.5532 16.4616 21.2003 16.7775C20.3519 17.5368 19.2286 18 18 18C16.7714 18 15.6481 17.5368 14.7997 16.7775C14.4468 16.4616 14.3127 15.9678 14.4573 15.5169L16.5157 9.09875L13.2 7.77246V19.2H15.6C16.2627 19.2 16.8 19.7373 16.8 20.4C16.8 21.0628 16.2627 21.6 15.6 21.6H8.4C7.73726 21.6 7.2 21.0628 7.2 20.4C7.2 19.7373 7.73726 19.2 8.4 19.2H10.8V7.77246L7.48429 9.09875L9.54267 15.5169C9.6873 15.9678 9.55318 16.4616 9.2003 16.7775C8.35188 17.5368 7.2286 18 6 18C4.7714 18 3.64812 17.5368 2.7997 16.7775C2.44682 16.4616 2.3127 15.9678 2.45733 15.5169L4.54313 9.01323L3.06334 8.27334C2.47057 7.97695 2.2303 7.25614 2.52669 6.66337C2.82307 6.07059 3.54388 5.83032 4.13666 6.12671L6.05467 7.08572L10.8 5.18758V3.60002C10.8 2.93728 11.3373 2.40002 12 2.40002ZM6 12.3294L5.01812 15.3909C5.31761 15.5254 5.64964 15.6 6 15.6C6.35036 15.6 6.68238 15.5254 6.98188 15.3909L6 12.3294ZM18 12.3294L17.0181 15.3909C17.3176 15.5254 17.6496 15.6 18 15.6C18.3504 15.6 18.6824 15.5254 18.9819 15.3909L18 12.3294Z" fill="#F1F5F9"/>
</svg>
