<svg width="24" height="24" viewBox="0 0 24 24" fill="none" xmlns="http://www.w3.org/2000/svg">
<path fill-rule="evenodd" clip-rule="evenodd" d="M14.4 1.90308L9.60002 6.70308V22.0972L14.4 17.2972V1.90308Z" fill="#334155"/>
<path fill-rule="evenodd" clip-rule="evenodd" d="M4.44855 3.9516C4.10535 3.60841 3.58921 3.50574 3.1408 3.69148C2.6924 3.87721 2.40002 4.31478 2.40002 4.80013V16.8001C2.40002 17.1184 2.52645 17.4236 2.7515 17.6487L7.20002 22.0972V6.70308L4.44855 3.9516Z" fill="#334155"/>
<path fill-rule="evenodd" clip-rule="evenodd" d="M21.2486 6.3516L16.8 1.90308V17.2972L19.5515 20.0487C19.8947 20.3919 20.4108 20.4945 20.8592 20.3088C21.3077 20.1231 21.6 19.6855 21.6 19.2001V7.20013C21.6 6.88187 21.4736 6.57665 21.2486 6.3516Z" fill="#334155"/>
</svg>
